<?xml version="1.0" encoding="utf-8"?>
<!-- Generator: Adobe Illustrator 21.0.2, SVG Export Plug-In . SVG Version: 6.00 Build 0)  -->
<svg version="1.1" id="圖層_1" xmlns="http://www.w3.org/2000/svg" xmlns:xlink="http://www.w3.org/1999/xlink" x="0px" y="0px"
	 viewBox="0 0 331.7 76.5" style="enable-background:new 0 0 331.7 76.5;" xml:space="preserve">
<style type="text/css">
	.st0{fill:#262E8D;}
	.st1{clip-path:url(#SVGID_2_);}
	.st2{fill:#6EBAEB;}
	.st3{fill:#FFFFFF;}
	.st4{fill:#F09EB9;}
	.st5{fill:#EB6B51;}
	.st6{fill:#ED6549;stroke:#ED6549;stroke-width:0.5;stroke-miterlimit:10;}
	.st7{fill:#262E8D;stroke:#262E8D;stroke-width:0.5;stroke-miterlimit:10;}
	.st8{clip-path:url(#SVGID_4_);}
	.st9{fill:#5785EA;stroke:#5785EA;stroke-width:1.2897;stroke-miterlimit:10;}
	.st10{fill:#F8CE5B;}
	.st11{font-family:'Thonburi-Bold';}
	.st12{font-size:44.5698px;}
	.st13{letter-spacing:3;}
	.st14{fill:#262E8D;stroke:#262E8D;stroke-width:1.2897;stroke-miterlimit:10;}
</style>
<circle class="st0" cx="-403.8" cy="100.9" r="14.8"/>
<g>
	<defs>
		<circle id="SVGID_1_" cx="-403.8" cy="100.9" r="14.8"/>
	</defs>
	<clipPath id="SVGID_2_">
		<use xlink:href="#SVGID_1_"  style="overflow:visible;"/>
	</clipPath>
	<g class="st1">
		<path class="st2" d="M-398.2,84.8C-398.2,84.8-398.2,84.8-398.2,84.8l-7.1,22.7c0,0,0.1,0,0.1,0c1,0.3,1.7,0.9,2.3,1.6
			c1.6-0.4,3.1-1.6,3.6-3.4l4.5-14.6C-394,88.5-395.5,85.6-398.2,84.8z"/>
		<path class="st3" d="M-405.3,107.5l7.1-22.7c-2.7-0.8-5.6,0.7-6.4,3.4l-4.5,14.6c-0.5,1.7,0,3.5,1.1,4.8
			C-407.1,107.3-406.2,107.2-405.3,107.5z"/>
		<path class="st4" d="M-405.2,107.5c0,0-0.1,0-0.1,0l-0.5,1.6c0,0,0.1,0,0.1,0.1c1,0.3,1.9,0.2,2.8,0
			C-403.5,108.4-404.2,107.8-405.2,107.5z"/>
		<path class="st5" d="M-405.8,109.1l0.5-1.6c-0.9-0.3-1.8-0.2-2.7,0.1C-407.4,108.3-406.7,108.8-405.8,109.1z"/>
		<path class="st5" d="M-408,107.6c-1.5,0.5-2.9,1.6-3.4,3.2c-0.8,2.6,0.6,5.3,3.2,6.1l2.4-7.8C-406.7,108.8-407.4,108.3-408,107.6z
			"/>
		<path class="st4" d="M-405.7,109.2c0,0-0.1,0-0.1-0.1l-2.4,7.8c0.1,0,0.1,0.1,0.1,0.1c2.6,0.8,5.4-0.7,6.2-3.3
			c0.5-1.7,0-3.3-1-4.6C-403.8,109.4-404.7,109.5-405.7,109.2z"/>
	</g>
</g>
<text transform="matrix(1 0 0 1 -382.1581 108.7882)" class="st6 st11" style="font-size:17.2794px; letter-spacing:1;">Status</text>
<text transform="matrix(1 0 0 1 -451.5819 108.7765)" class="st7 st11" style="font-size:17.2794px; letter-spacing:1;">Illu</text>
<g>
	<circle class="st0" cx="38.2" cy="38.2" r="38.2"/>
	<g>
		<defs>
			<circle id="SVGID_3_" cx="38.2" cy="38.2" r="38.2"/>
		</defs>
		<clipPath id="SVGID_4_">
			<use xlink:href="#SVGID_3_"  style="overflow:visible;"/>
		</clipPath>
		<g class="st8">
			<path class="st9" d="M52.6-3.3C52.6-3.3,52.6-3.3,52.6-3.3L34.3,55.2c0.1,0,0.2,0,0.3,0c2.5,0.8,4.4,2.4,6,4.3
				c4.2-1.2,7.9-4.2,9.3-8.7l11.5-37.6C63.6,6.2,59.6-1.2,52.6-3.3z"/>
			<path class="st3" d="M34.3,55.2L52.6-3.3c-7-2.1-14.4,1.8-16.5,8.8L24.5,43.1c-1.4,4.5-0.1,9,2.8,12.4
				C29.6,54.8,31.9,54.6,34.3,55.2z"/>
			<path class="st10" d="M34.7,55.3c-0.1,0-0.2,0-0.3,0L33,59.5c0.1,0,0.2,0.1,0.3,0.2c2.5,0.8,5,0.5,7.3-0.1
				C39.1,57.6,37.2,56,34.7,55.3z"/>
			<path class="st5" d="M33,59.5l1.3-4.2c-2.4-0.7-4.8-0.4-7,0.2C28.9,57.2,30.7,58.7,33,59.5z"/>
			<path class="st5" d="M27.3,55.4c-4,1.2-7.4,4-8.7,8.3c-2,6.6,1.6,13.6,8.1,15.8L33,59.5C30.7,58.7,28.9,57.2,27.3,55.4z"/>
			<path class="st10" d="M33.3,59.6c-0.1,0-0.2-0.1-0.3-0.2l-6.3,20.1c0.1,0,0.2,0.2,0.4,0.2c6.8,2.1,14-1.7,16-8.5
				c1.3-4.3,0.1-8.6-2.6-11.8C38.3,60.2,35.8,60.4,33.3,59.6z"/>
		</g>
	</g>
	<text transform="matrix(1 0 0 1 169.8125 58.5645)" class="st9 st11 st12 st13">Status</text>
	<text transform="matrix(1 0 0 1 93.9991 58.5353)" class="st14 st11 st12 st13">Illu</text>
</g>
</svg>
