<svg id="圖層_1" data-name="圖層 1" xmlns="http://www.w3.org/2000/svg" viewBox="0 0 321 76.5"><defs><style>.cls-1{fill:#eb4968;}</style></defs><title>illustatus_logo</title><path d="M40.32,69a6.31,6.31,0,0,1-4.71-1.9,7.3,7.3,0,0,1-1.86-5.33q0-3.43,4.09-21.91t4.09-26.66l-.5-3.64A37,37,0,0,1,53.51,7.37a7.29,7.29,0,0,1,.83,4.05Q54.33,18,50.16,37T46,59.08q0,3.1.74,3.1l5.79-2.07L54,63a35.17,35.17,0,0,1-6.82,4.13A16.63,16.63,0,0,1,40.32,69Z"/><path d="M62.31,69a6.31,6.31,0,0,1-4.71-1.9,7.3,7.3,0,0,1-1.86-5.33q0-3.43,4.09-21.91t4.09-26.66l-.5-3.64A37,37,0,0,1,75.5,7.37a7.29,7.29,0,0,1,.83,4.05Q76.32,18,72.15,37T68,59.08q0,3.1.74,3.1l5.79-2.07L76,63a35.17,35.17,0,0,1-6.82,4.13A16.63,16.63,0,0,1,62.31,69Z"/><path d="M78.56,61.81q0-3.51,2.15-12.07t2.15-10.5q0-1.94-3-5.17L80,33a76.12,76.12,0,0,1,14.8-1.16,12.33,12.33,0,0,1,.41,3.89q0,2.81-2.31,12T90.54,59.12q0,2.23,1.65,2.23a11.81,11.81,0,0,0,5.54-1.74q.33-2,1.65-7.61,3-13.23,3-18.93,2.89-1.16,10.42-1.16h1.57q0,3.89-2.31,15.17t-2.31,13.23q0,1.94.83,1.94a28.3,28.3,0,0,0,4.71-2l1.57,2.65Q109.47,69,103.93,69a7,7,0,0,1-4.5-1.49,5.5,5.5,0,0,1-2.11-3.89q-6.7,5.46-12.15,5.46a6.37,6.37,0,0,1-4.75-1.9A7.42,7.42,0,0,1,78.56,61.81Z"/><path d="M152.38,51.85a15,15,0,0,1-6,12.57A23.34,23.34,0,0,1,131.71,69a15.06,15.06,0,0,1-9.55-2.93q-3.76-2.93-4.18-5A18.82,18.82,0,0,1,121.87,55q3-3.39,5.37-4.13,4.22,2.73,7.85,12.15,5.37-.16,5.37-5.87,0-3.14-2.52-7.73a75.34,75.34,0,0,0-5.5-8.6,61.37,61.37,0,0,1-5.5-9,20.18,20.18,0,0,1-2.52-8.89A11.56,11.56,0,0,1,129.52,13,19.2,19.2,0,0,1,141,9.36q6.37,0,9.88,2.73t3.51,6.2a12.12,12.12,0,0,1-2.64,7.11,30.55,30.55,0,0,1-5.29,5.79l-2.64,2.15q1,1.32,2.4,3.39a61.94,61.94,0,0,1,3.8,7Q152.38,48.71,152.38,51.85Zm-6.32-27.11a12.43,12.43,0,0,0,2-2.6,6.22,6.22,0,0,0,.91-3.22,3.34,3.34,0,0,0-2-2.85,9.28,9.28,0,0,0-4.75-1.16,8,8,0,0,0-4.63,1.28,3.69,3.69,0,0,0-1.86,3.06,9.4,9.4,0,0,0,1.2,4.13,28.4,28.4,0,0,0,2.36,3.93l1.24,1.57a20.43,20.43,0,0,0,2.6-1.74A30.63,30.63,0,0,0,146.05,24.73Z"/><path d="M183.29,32.42a14.72,14.72,0,0,1-1.41,4.79,57.08,57.08,0,0,0-6-.33h-1.49q-3.8,18.43-3.8,23,0,2.4,1,2.4t5.5-2.07l1.49,2.73Q171.3,69,165,69a6.31,6.31,0,0,1-6.61-6.65,37.88,37.88,0,0,1,.7-6.82q.7-3.8,1.94-9.3t1.82-8.89q-3.06.25-4.55.5a17.11,17.11,0,0,1-.16-2.69,12.71,12.71,0,0,1,.25-2.77h5.21a57.77,57.77,0,0,0,.66-8.43l-.08-2.56v-.25a37.21,37.21,0,0,1,12.15-2.23,21.71,21.71,0,0,1,.33,4.13,57.14,57.14,0,0,1-1.41,9.34Z"/><path d="M206.44,33.83a13.17,13.17,0,0,0,.91-2.15q3.89,0,10.42,2.31a114.56,114.56,0,0,0-3.31,14.34A75.06,75.06,0,0,0,213.22,59q0,3.18.66,3.18a17,17,0,0,0,3.64-1.57l1-.5L220,63q-.74.66-1.94,1.65a27.71,27.71,0,0,1-4.5,2.69,13.31,13.31,0,0,1-6,1.69q-5.13,0-6-4.63Q196.35,69,192.1,69a9.24,9.24,0,0,1-7.19-3.31Q182,62.43,182,55.32q0-11.08,4.55-17.48t11-6.41A18.1,18.1,0,0,1,206.44,33.83ZM197,62a8.57,8.57,0,0,0,4.46-1.57,100.48,100.48,0,0,1,3.89-23.06,11,11,0,0,0-4.21-1.08q-3,0-5.08,5.83A37.55,37.55,0,0,0,194,55Q194,62,197,62Z"/><path d="M247.36,32.42A14.72,14.72,0,0,1,246,37.22a57.08,57.08,0,0,0-6-.33h-1.49q-3.8,18.43-3.8,23,0,2.4,1,2.4t5.5-2.07l1.49,2.73Q235.37,69,229.09,69a6.31,6.31,0,0,1-6.61-6.65,37.88,37.88,0,0,1,.7-6.82q.7-3.8,1.94-9.3t1.82-8.89q-3.06.25-4.55.5a17.11,17.11,0,0,1-.16-2.69,12.71,12.71,0,0,1,.25-2.77h5.21a57.77,57.77,0,0,0,.66-8.43l-.08-2.56v-.25a37.21,37.21,0,0,1,12.15-2.23,21.71,21.71,0,0,1,.33,4.13,57.14,57.14,0,0,1-1.41,9.34Z"/><path d="M247.19,61.81q0-3.51,2.15-12.07t2.15-10.5q0-1.94-3-5.17L248.6,33a76.12,76.12,0,0,1,14.8-1.16,12.34,12.34,0,0,1,.41,3.89q0,2.81-2.31,12t-2.31,11.41q0,2.23,1.65,2.23a11.81,11.81,0,0,0,5.54-1.74q.33-2,1.65-7.61,3-13.23,3-18.93,2.89-1.16,10.42-1.16H283q0,3.89-2.31,15.17t-2.31,13.23q0,1.94.83,1.94a28.37,28.37,0,0,0,4.71-2l1.57,2.65Q278.11,69,272.58,69a7,7,0,0,1-4.51-1.49A5.52,5.52,0,0,1,266,63.67q-6.69,5.46-12.15,5.46a6.37,6.37,0,0,1-4.75-1.9A7.42,7.42,0,0,1,247.19,61.81Z"/><path d="M313.33,57.22a10.08,10.08,0,0,1-4.59,8.52A17.44,17.44,0,0,1,298.28,69q-5.87,0-9.3-2.48t-3.43-4.38q0-1.16,2.89-3.76a13.94,13.94,0,0,1,4.88-3.18q4.13,3.06,6.78,9.67,3.06-.25,3.06-2.89,0-3.8-6.7-10.79t-6.69-11.12a7.13,7.13,0,0,1,3.72-6.41,16.88,16.88,0,0,1,9-2.27q5.25,0,7.9,1.86a5.86,5.86,0,0,1,2.64,5q0,3.18-5,8.8l1.49,1.53a19.64,19.64,0,0,1,2.4,3.6A10.2,10.2,0,0,1,313.33,57.22Zm-4.46-18.85q0-2.89-4-2.89a5.78,5.78,0,0,0-3.14.79A2.18,2.18,0,0,0,300.52,38q0,1.82,3.64,5.13l1.24,1.08Q308.87,41.27,308.87,38.37Z"/><path class="cls-1" d="M9.32,67.51a5.78,5.78,0,0,1-1.65-4.34,6.31,6.31,0,0,1,2.27-4.8,7.57,7.57,0,0,1,5.25-2.07A6.26,6.26,0,0,1,19.82,58a5.87,5.87,0,0,1,1.65,4.34,6.18,6.18,0,0,1-2.36,4.75,7.77,7.77,0,0,1-5.25,2.07A6.24,6.24,0,0,1,9.32,67.51Z"/><path d="M28.35,11.34q0,8.54-5.61,26.83-.43,1.47-1.6,5.31t-1.77,5.91a13.22,13.22,0,0,1-4.1.78A25.42,25.42,0,0,1,12.13,50a204.8,204.8,0,0,0,3.11-33L14.72,9.7A43.87,43.87,0,0,1,27.83,7.37Q28.35,8.15,28.35,11.34Z"/></svg>